<svg width="101" height="31" viewBox="0 0 101 31" fill="none" xmlns="http://www.w3.org/2000/svg">
<path d="M62.1124 24.2372C56.2936 28.5196 47.8403 30.8252 40.5947 30.8252C30.4171 30.8252 21.2436 27.0654 14.2994 20.7788C13.7514 20.2856 14.2446 19.626 14.9042 20.0116C22.3965 24.3742 31.6463 26.9832 41.2249 26.9832C48.1189 26.9487 54.9381 25.5519 61.2903 22.873C62.2494 22.462 63.1008 23.5326 62.1124 24.2431" fill="#686F8B"/>
<path d="M64.559 21.4658C63.8191 20.5048 59.6463 21.0274 57.7537 21.2466C57.1763 21.3288 57.0941 20.8062 57.6147 20.45C60.942 18.117 66.3988 18.7766 67.0309 19.5712C67.6631 20.3658 66.8646 25.8343 63.7369 28.4374C63.2692 28.8484 62.8033 28.6331 63.0225 28.0812C63.7095 26.351 65.3008 22.4268 64.559 21.4658Z" fill="#686F8B"/>
<path d="M57.8866 3.92713V1.64893C57.8848 1.57276 57.8984 1.497 57.9266 1.42624C57.9548 1.35547 57.9971 1.29116 58.0509 1.2372C58.1047 1.18323 58.1688 1.14073 58.2395 1.11226C58.3102 1.08379 58.3859 1.06994 58.4621 1.07155H68.6396C68.7158 1.06994 68.7915 1.08379 68.8622 1.11226C68.9328 1.14073 68.997 1.18323 69.0508 1.2372C69.1046 1.29116 69.1469 1.35547 69.1751 1.42624C69.2033 1.497 69.2169 1.57276 69.215 1.64893V3.60615C69.215 3.93496 68.941 4.34598 68.4478 5.03296L63.1888 12.5722C65.146 12.5174 67.2245 12.8207 69.0076 13.8072C69.1708 13.8894 69.3084 14.0148 69.4053 14.1698C69.5023 14.3247 69.5549 14.5032 69.5576 14.686V17.0992C69.5576 17.428 69.1994 17.8136 68.8158 17.6218C67.15 16.7654 65.3031 16.321 63.4301 16.3257C61.557 16.3305 59.7125 16.7843 58.0511 17.6492C57.6948 17.8449 57.3367 17.4535 57.3367 17.1266V14.823C57.3367 14.4315 57.3367 13.8072 57.7281 13.2572L63.8483 4.4732H58.5169C58.4379 4.48845 58.3564 4.48552 58.2787 4.46463C58.201 4.44375 58.129 4.40545 58.0683 4.35265C58.0076 4.29984 57.9597 4.23392 57.9282 4.15986C57.8967 4.0858 57.8825 4.00554 57.8866 3.92518" fill="#686F8B"/>
<path d="M20.6956 18.1444H17.5856C17.4476 18.136 17.3169 18.0792 17.2167 17.984C17.1164 17.8887 17.053 17.7612 17.0376 17.6238V1.70374C17.0376 1.62529 17.0533 1.54764 17.0837 1.47536C17.1142 1.40308 17.1589 1.33764 17.2151 1.28291C17.2713 1.22818 17.3379 1.18526 17.4109 1.15669C17.484 1.12812 17.562 1.11448 17.6404 1.11657H20.5234C20.6646 1.11593 20.8005 1.17 20.9027 1.26744C21.0049 1.36487 21.0654 1.49809 21.0714 1.63915V3.72555H21.1262C21.868 1.72135 23.2948 0.789715 25.2168 0.789715C27.1388 0.789715 28.3719 1.72331 29.2507 3.72555C29.9924 1.72135 31.6933 0.789715 33.5331 0.789715C34.225 0.782356 34.9094 0.934628 35.5329 1.2347C36.1565 1.53477 36.7025 1.97455 37.1285 2.5199C38.1169 3.86451 37.8977 5.8139 37.8977 7.51472V17.569C37.8961 17.6466 37.8792 17.7231 37.848 17.7942C37.8167 17.8652 37.7716 17.9294 37.7153 17.9829C37.6591 18.0364 37.5928 18.0782 37.5203 18.1059C37.4478 18.1337 37.3705 18.1467 37.2929 18.1444H34.1985C34.0517 18.1346 33.9139 18.07 33.8124 17.9635C33.7109 17.8569 33.6531 17.7161 33.6505 17.569V9.14117C33.6505 8.48355 33.7053 6.80817 33.5683 6.15054C33.3491 5.07994 32.6347 4.78049 31.7559 4.78049C31.3503 4.79377 30.9575 4.92561 30.626 5.15971C30.2945 5.3938 30.0389 5.7199 29.8907 6.0977C29.5599 6.89233 29.6147 8.2389 29.6147 9.14313V17.569C29.6132 17.6464 29.5963 17.7228 29.5652 17.7937C29.534 17.8646 29.4891 17.9287 29.4331 17.9822C29.377 18.0356 29.311 18.0775 29.2387 18.1054C29.1664 18.1332 29.0893 18.1465 29.0119 18.1444H25.9097C25.7628 18.1346 25.625 18.07 25.5235 17.9635C25.4221 17.8569 25.3643 17.7161 25.3617 17.569V9.14117C25.3617 7.35815 25.6631 4.75113 23.4397 4.75113C21.2163 4.75113 21.3043 7.31313 21.3043 9.14117V17.569C21.2973 17.724 21.2307 17.8704 21.1184 17.9776C21.0061 18.0848 20.8568 18.1445 20.7015 18.1444" fill="#686F8B"/>
<path d="M78.0051 0.797533C82.6163 0.797533 85.0863 4.75112 85.0863 9.77335C85.0863 14.6312 82.3462 18.4732 78.0051 18.4732C73.4761 18.4732 71.0334 14.5216 71.0334 9.60894C71.0334 4.63955 73.5309 0.801445 78.0051 0.801445V0.797533ZM78.0325 4.04065C75.7543 4.04065 75.6173 7.14284 75.6173 9.09028C75.6173 11.0377 75.5899 15.1851 78.0325 15.1851C80.4751 15.1851 80.5573 11.8363 80.5573 9.80466C80.5573 8.46005 80.5025 6.86883 80.0915 5.57707C79.7 4.47906 79.0209 4.04065 78.0325 4.04065Z" fill="#686F8B"/>
<path d="M91.0696 18.1444H87.9968C87.8496 18.1351 87.7113 18.0707 87.6094 17.9641C87.5075 17.8575 87.4494 17.7164 87.4468 17.569V1.64892C87.463 1.50156 87.5343 1.36578 87.6465 1.26885C87.7587 1.17192 87.9034 1.12101 88.0516 1.12634H90.9326C91.0606 1.12671 91.1846 1.17046 91.2845 1.25044C91.3844 1.33043 91.4542 1.44193 91.4826 1.56672V4.00933H91.5374C92.4142 1.84073 93.6218 0.797533 95.763 0.797533C97.1624 0.797533 98.5031 1.29271 99.3858 2.66472C100.21 3.92713 100.21 6.06833 100.21 7.60474V17.6238C100.187 17.7658 100.113 17.8945 100.001 17.9854C99.8897 18.0763 99.7488 18.1231 99.605 18.117H96.45C96.3157 18.1102 96.1878 18.0575 96.0877 17.9677C95.9876 17.8779 95.9214 17.7565 95.9 17.6238V8.97676C95.9 7.24853 96.0957 4.69632 93.9526 4.69632C93.5646 4.71058 93.1891 4.83757 92.8721 5.06177C92.5551 5.28596 92.3103 5.59764 92.1676 5.95872C91.7292 6.91776 91.6744 7.90616 91.6744 8.97676V17.5416C91.6723 17.7011 91.6079 17.8536 91.4949 17.9662C91.3818 18.0789 91.2292 18.1429 91.0696 18.1444Z" fill="#686F8B"/>
<path d="M55.2777 15.2085C54.7023 14.412 54.1034 13.7798 54.1034 12.3256V7.49514C54.1034 5.43615 54.2423 3.57092 52.7333 2.16955C51.559 1.01674 49.5783 0.633128 48.0673 0.633128C45.1315 0.633128 41.8042 1.73113 41.1231 5.38135C41.1085 5.45556 41.1092 5.53197 41.1251 5.60592C41.1409 5.67987 41.1717 5.74982 41.2154 5.81151C41.2592 5.87321 41.315 5.92536 41.3796 5.9648C41.4441 6.00424 41.516 6.03014 41.5909 6.04093L44.5815 6.36974C44.8555 6.36974 45.0767 6.09573 45.1315 5.78257C45.3781 4.52017 46.4487 3.91734 47.6289 3.91734C48.2591 3.91734 48.9989 4.16395 49.3571 4.71393C49.7975 5.34416 49.7486 6.22295 49.7486 6.96278V7.37575C47.9636 7.57148 45.6032 7.70457 43.9297 8.44635C41.9725 9.29579 40.6357 10.9907 40.6357 13.5234C40.6357 16.7352 42.6673 18.3538 45.2744 18.3538C47.4704 18.3538 48.678 17.8332 50.3788 16.103C50.9288 16.927 51.1206 17.3106 52.1638 18.162C52.2814 18.2228 52.4145 18.2475 52.5461 18.2328C52.6778 18.2182 52.8021 18.165 52.9036 18.0798C53.5358 17.5318 54.6651 16.5434 55.2914 16.0208C55.5263 15.8388 55.4715 15.4826 55.2777 15.2085ZM49.1849 13.8072C48.6917 14.686 47.8951 15.2085 47.0437 15.2085C45.8693 15.2085 45.151 14.3024 45.151 12.9577C45.151 10.3214 47.5115 9.82619 49.7623 9.82619V10.4858C49.7623 11.7501 49.7897 12.7366 49.1849 13.8072Z" fill="#686F8B"/>
<path d="M14.6302 15.2085C14.0431 14.412 13.4559 13.7798 13.4559 12.3256V7.49514C13.4559 5.43615 13.5929 3.57092 12.0858 2.16955C10.9115 1.01674 8.9308 0.633128 7.41982 0.633128C4.48399 0.633128 1.18999 1.73113 0.475605 5.38135C0.461319 5.45554 0.4622 5.53185 0.478196 5.60569C0.494191 5.67954 0.52497 5.74937 0.568677 5.811C0.612384 5.87263 0.668115 5.92477 0.732512 5.96429C0.796909 6.0038 0.868639 6.02988 0.94338 6.04093L3.96141 6.36974C4.23738 6.36974 4.45659 6.09573 4.51139 5.78257C4.758 4.52017 5.8286 3.91734 7.00881 3.91734C7.64099 3.91734 8.37886 4.16395 8.73703 4.71393C9.17741 5.34416 9.12848 6.22295 9.12848 6.96278V7.37575C7.34349 7.57148 4.98308 7.70456 3.30966 8.44635C1.3407 9.30557 0 11.0084 0 13.5332C0 16.745 2.03159 18.3636 4.63861 18.3636C6.83461 18.3636 8.04222 17.843 9.74304 16.1128C10.3302 16.9368 10.4848 17.3204 11.528 18.1718C11.6461 18.2325 11.7794 18.2571 11.9113 18.2425C12.0432 18.2279 12.1679 18.1747 12.2698 18.0896C12.9 17.5416 14.0313 16.5532 14.6576 16.0306C14.8768 15.8388 14.822 15.4826 14.6302 15.2085ZM8.53544 13.8072C8.04222 14.686 7.27303 15.2085 6.39424 15.2085C5.21991 15.2085 4.50161 14.3024 4.50161 12.9577C4.50161 10.3214 6.86201 9.82619 9.11282 9.82619V10.4858C9.11282 11.7501 9.14022 12.7366 8.53544 13.8072Z" fill="#686F8B"/>
</svg>
