<svg width="64" height="31" viewBox="0 0 64 31" fill="none" xmlns="http://www.w3.org/2000/svg">
<path d="M6.82348 11.5476V3.00295C6.82348 2.68732 6.85487 2.49725 7.3937 2.49725H14.6287C15.893 2.49725 16.5887 3.57142 17.0944 5.59423L17.506 7.2055H18.7441C18.9655 2.62454 19.1556 0.633128 19.1556 0.633128C19.1556 0.633128 16.0586 0.981887 14.2259 0.981887H4.96808L0.00697535 0.824944V2.15197L1.67404 2.47981C2.84239 2.70127 3.12663 2.95412 3.22254 4.0283C3.22254 4.0283 3.3167 7.18806 3.3167 12.3985C3.3167 17.609 3.22428 20.7374 3.22428 20.7374C3.22428 21.686 2.84413 22.033 1.67579 22.2545L0 22.5701V23.8971L4.9611 23.7402H13.2406C15.1048 23.7402 19.4346 23.8971 19.4346 23.8971C19.5288 22.7602 20.1618 17.609 20.2559 17.0405H19.0928L17.86 19.8533C16.88 22.0644 15.4588 22.2231 13.8789 22.2231H9.17063C7.59075 22.2231 6.8322 21.5901 6.8322 20.2317V13.028C6.8322 13.028 10.2762 13.028 11.4777 13.1222C12.3618 13.185 12.8989 13.4378 13.1848 14.6707L13.5632 16.3133H14.9077L14.8136 12.1736L15.0019 8.00241H13.6435L13.2023 9.83514C12.918 11.0366 12.728 11.2581 11.4951 11.3836C10.1001 11.5423 6.81824 11.5109 6.81824 11.5109V11.5476H6.82348Z" fill="#686F8B"/>
<path d="M25.5623 3.89403C25.1193 5.85406 24.6781 7.37116 23.1297 8.38256C22.4484 8.84694 21.67 9.14935 20.854 9.26667V10.4664H23.6667V20.1671C23.6667 22.8857 25.4681 24.2127 27.8693 24.2127C29.7334 24.2127 31.6621 23.4228 32.3247 21.7802L31.6621 20.9257C31.3447 21.4645 30.335 22.2545 29.0708 22.2545C27.6757 22.2545 26.9224 21.3058 26.9224 18.9046V10.3408L31.5993 10.6896L31.8521 8.5395L26.9224 8.72958V3.92542L25.5623 3.89403Z" fill="#686F8B"/>
<path d="M35.5491 18.8157L34.3477 18.8471C34.4104 19.5446 34.4436 20.4287 34.4436 21.25C34.4564 21.9251 34.4244 22.6003 34.3477 23.2711C34.3477 23.2711 36.7489 24.1552 39.1832 24.1552C42.4685 24.1552 45.0929 22.5753 45.0929 19.4783C45.0929 14.1702 37.129 14.9602 37.129 11.3889C37.129 9.9049 38.456 9.33642 39.9104 9.33642C41.0473 9.33642 42.0029 9.74621 42.1773 10.3478L42.9829 12.7176L44.153 12.6549C44.2472 11.3906 44.3117 9.93629 44.5018 8.76794C43.4904 8.32502 41.3734 8.07042 40.0481 8.07042C36.9494 8.07042 34.454 9.42884 34.454 12.463C34.454 17.7398 42.2279 16.6656 42.2279 20.5525C42.2279 21.9476 41.3734 22.9223 39.4465 22.9223C37.6766 22.9223 36.7925 22.0051 36.4454 21.0896L35.5491 18.8157Z" fill="#686F8B"/>
<path d="M54.5947 22.4672C52.7655 27.5765 50.5247 28.9018 48.5071 28.9018C47.6544 28.9018 47.2446 28.5217 47.1121 27.9235L46.6448 25.463L45.3212 25.5258C45.0684 26.9767 44.8155 28.5862 44.4685 29.9115C45.2584 30.5096 46.582 30.8252 47.623 30.8252C49.801 30.8252 53.1125 30.541 56.1397 23.3496L61.2177 11.3732C61.6292 10.3949 61.7862 10.3007 62.9841 9.82642L63.6468 9.57531V8.47149L60.6492 8.62843L57.4336 8.47149V9.57531L58.2532 9.82642C59.0728 10.0793 59.4512 10.3949 59.4512 10.9634C59.4246 11.3112 59.3391 11.652 59.1984 11.9713C58.7258 13.171 55.7927 20.2997 55.0045 21.8133L55.791 21.529C54.3959 18.0903 52.2912 12.3497 51.9756 11.3732C51.9168 11.2109 51.8849 11.04 51.8814 10.8675C51.8814 10.3635 52.2301 9.95197 52.9852 9.79503L54.0315 9.57531V8.47149L49.7086 8.62843L46.2716 8.47149V9.57531L46.8401 9.76364C47.6283 10.0165 47.8166 10.238 48.2909 11.3418C50.9066 17.3352 52.1377 20.6135 53.81 24.905L54.5947 22.4672Z" fill="#686F8B"/>
</svg>
