<svg width="187" height="34" viewBox="0 0 187 34" fill="none" xmlns="http://www.w3.org/2000/svg">
<g clip-path="url(#clip0_80_360)">
<path d="M24.43 6.46002C24.3189 6.43883 24.2047 6.44029 24.0942 6.4643C23.9837 6.4883 23.8792 6.53437 23.787 6.59973C23.6947 6.6651 23.6166 6.74839 23.5573 6.84467C23.498 6.94095 23.4588 7.04823 23.4419 7.16004C23.4251 7.27185 23.431 7.38589 23.4593 7.49536C23.4876 7.60483 23.5377 7.70748 23.6066 7.79712C23.6756 7.88676 23.7619 7.96155 23.8604 8.01703C23.9589 8.07251 24.0676 8.10754 24.18 8.12C26.4411 8.3996 28.6503 9.00246 30.74 9.91004C32.11 10.57 32.9 11.31 32.9 11.91C32.9 12.85 31.27 13.91 28.66 14.75C24.9643 15.7883 21.1385 16.2901 17.3 16.2401C13.4529 16.3028 9.61688 15.811 5.91 14.78C3.3 13.96 1.67 12.88 1.67 11.94C1.67 11 4.16 8.94004 11 8.04004C11.1148 8.02581 11.2254 7.98801 11.325 7.92902C11.4245 7.87003 11.5107 7.79109 11.5783 7.69721C11.6459 7.60332 11.6934 7.49651 11.7178 7.38342C11.7422 7.27034 11.7429 7.15344 11.72 7.04004C11.6877 6.82136 11.5715 6.62386 11.396 6.48944C11.2205 6.35503 10.9995 6.29423 10.78 6.32001C8.20607 6.60207 5.68657 7.25552 3.3 8.26001C1.79 8.95001 0 10.15 0 11.89C0 13.15 0.94 14.89 5.41 16.33C5.9 16.48 6.41 16.6 6.98 16.73C6.84033 16.7998 6.72259 16.9067 6.63968 17.039C6.55677 17.1713 6.5119 17.3239 6.51 17.48V25.46C6.51 25.6828 6.5985 25.8965 6.75603 26.054C6.91356 26.2115 7.12722 26.3001 7.35 26.3001C7.57278 26.3001 7.78644 26.2115 7.94397 26.054C8.1015 25.8965 8.19 25.6828 8.19 25.46V17.53C8.18863 17.3555 8.12877 17.1865 8.02 17.0501C11.0771 17.6454 14.1855 17.9368 17.3 17.92C20.4145 17.9368 23.5229 17.6454 26.58 17.0501C26.4712 17.1865 26.4114 17.3555 26.41 17.53V29.7401C26.41 30.4201 23.31 32 17.3 32C11.29 32 8.19 30.4201 8.19 29.7401V27.37C8.19 27.1472 8.1015 26.9336 7.94397 26.7761C7.78644 26.6185 7.57278 26.53 7.35 26.53C7.12722 26.53 6.91356 26.6185 6.75603 26.7761C6.5985 26.9336 6.51 27.1472 6.51 27.37V29.7401C6.51 30.6101 7.12 31.8301 10.02 32.7401C12.3843 33.4293 14.8374 33.7663 17.3 33.7401C19.7626 33.7663 22.2157 33.4293 24.58 32.7401C27.48 31.8401 28.09 30.6201 28.09 29.7401V17.53C28.0881 17.3739 28.0432 17.2214 27.9603 17.0891C27.8774 16.9568 27.7597 16.8498 27.62 16.78C28.15 16.65 28.7 16.53 29.19 16.38C33.66 14.98 34.6 13.2 34.6 11.94C34.6 9.46 30.9 7.46002 24.43 6.46002Z" fill="#490A3C"/>
<path d="M9.0801 11.31C9.02414 11.092 8.88857 10.903 8.7001 10.78C8.60312 10.7227 8.49572 10.6852 8.38413 10.6697C8.27254 10.6543 8.159 10.6612 8.0501 10.69C7.7635 10.7484 7.50647 10.9055 7.32376 11.1339C7.14104 11.3623 7.0442 11.6475 7.0501 11.94C7.04379 12.2336 7.14027 12.5203 7.32286 12.7503C7.50545 12.9804 7.76268 13.1394 8.0501 13.2C11.0796 13.8777 14.1757 14.2131 17.2801 14.2C20.391 14.2119 23.4936 13.8765 26.5301 13.2C26.8125 13.1328 27.0639 12.9725 27.2438 12.7447C27.4238 12.517 27.5216 12.2352 27.5216 11.945C27.5216 11.6547 27.4238 11.373 27.2438 11.1453C27.0639 10.9176 26.8125 10.7571 26.5301 10.69L26.4701 10.95V10.68C26.2542 10.6347 26.0293 10.6752 25.8427 10.7928C25.6561 10.9103 25.5225 11.0957 25.4701 11.31C25.4353 11.441 25.4353 11.5789 25.4701 11.71C20.029 12.71 14.4512 12.71 9.0101 11.71C9.0636 11.5837 9.08754 11.4469 9.0801 11.31V11.31Z" fill="#490A3C"/>
<path d="M16.2599 9.19C16.4819 9.18741 16.694 9.09807 16.851 8.9411C17.008 8.78413 17.0973 8.57201 17.0999 8.35004V0.840027C17.0973 0.618051 17.008 0.405873 16.851 0.248901C16.694 0.0919301 16.4819 0.00259647 16.2599 0C16.0379 0.00259647 15.8258 0.0919301 15.6688 0.248901C15.5119 0.405873 15.4225 0.618051 15.4199 0.840027V8.35004C15.4225 8.57201 15.5119 8.78413 15.6688 8.9411C15.8258 9.09807 16.0379 9.18741 16.2599 9.19V9.19Z" fill="#E88024"/>
<path d="M21.7099 11.34C21.93 11.34 22.1411 11.2525 22.2968 11.0969C22.4524 10.9412 22.5399 10.7301 22.5399 10.51C22.5399 10.51 22.5399 5.50998 24.5399 2.50998C24.6296 2.37132 24.6765 2.20931 24.6746 2.04416C24.6727 1.87901 24.6222 1.71811 24.5294 1.58151C24.4365 1.44492 24.3055 1.33867 24.1526 1.27615C23.9997 1.21364 23.8318 1.19762 23.6699 1.23001C23.5621 1.25191 23.4597 1.29498 23.3688 1.35678C23.2778 1.41858 23.2 1.49787 23.1399 1.59C20.9099 4.99 20.8899 10.29 20.8899 10.52C20.8925 10.7367 20.9797 10.9437 21.1329 11.097C21.2862 11.2502 21.4932 11.3374 21.7099 11.34V11.34Z" fill="#899C3B"/>
<path d="M12.74 10.51C12.7427 10.7311 12.8323 10.9422 12.9896 11.0975C13.1468 11.2529 13.359 11.3401 13.58 11.34C13.8011 11.3401 14.0133 11.2529 14.1705 11.0975C14.3277 10.9422 14.4174 10.7311 14.42 10.51C14.42 10.28 14.42 4.98003 12.16 1.58003C12.1017 1.48634 12.0245 1.40589 11.9332 1.34389C11.8419 1.28188 11.7386 1.23971 11.63 1.22005C11.5223 1.19726 11.4111 1.19615 11.303 1.21675C11.1948 1.23735 11.0918 1.27925 11 1.34004C10.9079 1.40012 10.8286 1.47794 10.7668 1.56892C10.705 1.65991 10.6619 1.76222 10.64 1.87001C10.6173 1.97773 10.6161 2.08894 10.6367 2.1971C10.6573 2.30526 10.6992 2.40821 10.76 2.50002C12.71 5.46002 12.74 10.46 12.74 10.51Z" fill="#BD1F52"/>
<path d="M19.2601 8.17006H19.3501C19.558 8.16853 19.7579 8.08998 19.9112 7.9496C20.0645 7.80922 20.1603 7.61698 20.1801 7.41005L20.5601 3.53005C20.5742 3.41988 20.5655 3.30797 20.5345 3.20131C20.5036 3.09465 20.451 2.99553 20.3801 2.91005C20.2355 2.74081 20.0315 2.63345 19.8101 2.61006C19.7007 2.59415 19.5891 2.60294 19.4835 2.63582C19.378 2.6687 19.2811 2.72484 19.2001 2.80007C19.0269 2.9385 18.9155 3.1398 18.8901 3.36006L18.5101 7.24007C18.489 7.46372 18.5573 7.68662 18.7001 7.86006C18.8385 8.03325 19.0398 8.14468 19.2601 8.17006V8.17006Z" fill="#F7CB10"/>
<path d="M40.62 25.36L40.28 25.26L40.08 25.1L39.91 24.88L39.86 24.54V24.2L39.81 23.66V23.46L39.88 22.92L39.93 22.31V22.02V21.59V21.12V20.71V20.08V19.72V19.28V18.91V18.7401L39.85 18.52L39.8 18.33L39.9 18.26H40.02V18.14H39.9L39.85 18.02V17.95L39.9 17.85L39.85 17.68V17.44V17.31L39.9 17.1V16.78L39.85 16.61L39.9 16.39V15.93L39.95 15.59L40 15.42V15.15V14.71V14.3V13.86V13.3L39.95 12.38V11.92L39.9 11.63V10.44V9.92999V9.63V9.10004L40.05 8.74005L40.15 8.64001L40.32 8.49005H40.54L40.8 8.42004H41.17H41.39H41.65H42.92H43.06H43.38H43.82H44.26H44.62H45.42H45.59H45.96H46.42H46.64H46.86H47.1H47.37H47.61L47.83 8.34003H48H48.09L48.22 8.29004L48.44 8.34003H48.97H49.41H49.68H50.02L50.4 8.44L50.74 8.51001L51.25 8.70001L51.67 8.90002L52.11 9.12L52.57 9.51001L52.91 9.87L53.08 10.09L53.27 10.41L53.44 10.75L53.56 11.06L53.66 11.33V11.52L53.78 11.84L53.87 12.28V12.62L53.95 12.96V13.76V14.29L53.83 14.8V15.27L53.64 15.63V15.83L53.52 16.07L53.42 16.29L53.18 16.55L52.91 16.89L52.79 17.06L52.57 17.28L52.33 17.6L52.16 17.79L51.96 17.89L51.82 17.9901L51.62 18.08L51.38 18.18L50.94 18.28L50.77 18.38L50.5 18.5L50.28 18.55H50.02H49.7H48.49H48.25H47.76H47.35L46.94 18.6H46.38L45.67 18.68H44.09H43.48L42.92 18.75L42.76 19.17L42.61 19.68V21.09V21.33V21.65V22.18V22.86V23.71L42.54 24V24.46V24.67L42.42 24.92L42.13 25.19L41.79 25.26L41.57 25.33H41.18L40.62 25.36ZM46.08 15.91H46.72H46.89H47.03H47.23H47.59H48.15H49.42L49.93 15.76L50.29 15.57L50.7 15.13L51.04 14.52L51.14 14.11V13.8V13.31L51.05 12.77L50.93 12.2401L50.73 11.88L50.56 11.71L50.27 11.51L49.57 11.2L48.86 11.12H48.5H48.03H47.72H47.38H47.11H45.77H45.48H45.33H45.19H44.87H44.46L43.85 11.17L43.29 11.12H43.14L42.97 11.2L42.85 11.46L42.76 11.83L42.68 12.31V12.8V13.12L42.63 13.46V15.25L42.68 15.69L42.75 15.84L42.87 15.94L43.19 16.01L43.58 16.06H43.99H45.21H45.59L46.08 15.91Z" fill="#231F20"/>
<path d="M64.53 25.68H64.12H63.76L63.27 25.61H62.66L62.23 25.51L61.98 25.44L61.67 25.37L61.23 25.2L60.65 24.98L60.16 24.71L59.92 24.59L59.65 24.42L59.33 24.25L59.12 24.08L58.87 23.93L58.53 23.62L58.12 23.25L57.85 22.9901L56.98 21.9901L56.64 21.33L56.34 20.8L56.03 20.2401L55.88 19.7L55.76 19.39L55.64 18.81L55.54 18.32V18.03L55.46 17.61V17.27V16.86V16.16L55.54 15.7V15.26L55.73 14.65L55.8 14.26L56 13.7L56.24 13.07L56.46 12.73L56.7 12.2L57.16 11.47L57.58 10.91L57.82 10.69L57.99 10.47L58.23 10.2L58.48 9.96002L58.67 9.86005L58.94 9.60004L59.6 9.23004L60.18 8.94L60.86 8.62L61.37 8.48004L61.69 8.33002L62.34 8.11005L62.95 8.01001L63.34 7.94H63.92H64.77L65.36 7.99005H65.62L66.06 8.07001L66.55 8.19L66.86 8.26001L67.08 8.36005L67.45 8.48004L67.79 8.60004L68.13 8.77002L68.52 8.99005L69.03 9.26001L69.71 9.69L70.22 10.1L70.73 10.59L71.33 11.32L71.72 11.78L71.89 12.03L72.04 12.32L72.21 12.56L72.43 13L72.67 13.56L72.82 14.04L72.94 14.43L72.99 14.65L73.08 14.97L73.21 15.58V15.96V16.3V16.69L73.16 17.11V17.7401L73.11 18.13V18.51L73.04 19L72.96 19.29L72.87 19.7L72.65 20.29L72.45 20.82L72.23 21.29L72.06 21.58L71.94 21.82L71.75 22.06L71.58 22.28L71.43 22.46L71.33 22.63L71.19 22.8L70.92 23.07L70.61 23.31L70.43 23.46L70.26 23.61L70.04 23.78L69.84 23.95L69.6 24.09L69.43 24.2401L69.14 24.43L68.65 24.7L68.12 25.02L67.7 25.19L67.44 25.28L66.93 25.45L66.32 25.62L65.81 25.7H65.1L64.53 25.68ZM65.36 22.86H65.68H65.82L65.94 22.79H66.04L66.36 22.7401L66.67 22.59L66.96 22.5L67.43 22.25L67.91 21.94L68.55 21.48L68.91 21.09L69.03 20.94L69.23 20.65L69.59 20.19L70.08 19.46L70.22 18.92L70.32 18.46L70.39 17.93V17.27L70.44 16.93L70.39 16.3L70.22 15.42L70.05 14.86L69.81 14.35L69.69 13.94L69.54 13.67L69.35 13.29L69.05 12.92L68.88 12.7L68.62 12.43L67.79 11.78L67.01 11.32L66.55 11.12L66.04 10.98H65.85L65.53 10.88L65.12 10.78H63.83L63.47 10.86H63.03L62.47 11.02L61.67 11.37L60.31 12.14L60.06 12.41L59.87 12.65L59.72 12.77L59.43 13.19L59.21 13.6L59.09 13.77L58.99 14.04L58.82 14.35L58.68 14.7401L58.56 15.13L58.51 15.47L58.39 16.01L58.34 16.61V16.91V17.25V17.63V18V18.12L58.41 18.39L58.51 18.83L58.58 19.19L58.87 19.72L59.46 20.6L59.92 21.18L60.09 21.38L60.48 21.72L60.96 22.03L61.13 22.13H61.23L61.67 22.37L62.18 22.62L62.59 22.7401L63.27 22.86L63.95 22.96H64.54L65.36 22.86Z" fill="#231F20"/>
<path d="M81.89 25.68L81.58 25.63L81.16 25.56L80.51 25.46L79.78 25.22L79.29 25.05L78.37 24.66L77.71 24.29L77.42 24.07L77.01 23.78L76.33 23.17L75.79 22.71L75.5 22.25L75.28 21.84V21.35L75.5 20.94L75.77 20.6L76.18 20.38L76.42 20.31L76.67 20.21H76.98L77.3 20.28L77.54 20.43L78.13 20.96L78.22 21.13L78.32 21.23L79.02 21.79L79.32 22.01L79.58 22.13L80.07 22.4L80.6 22.59L80.99 22.79L81.33 22.88L81.58 22.93H81.77H81.97H82.18H82.33H82.69H83.28L83.64 22.83H84.01H84.3H84.61L84.88 22.76L85.08 22.66L85.39 22.56L85.81 22.32L86.34 21.88L86.68 21.47L86.75 21.27L86.9 20.91V20.45L86.82 19.84L86.43 19.16L85.95 18.87L85.68 18.75L85.31 18.63L84.97 18.53L84.61 18.48L84.24 18.39H83.9L83.59 18.32H83.25L82.74 18.22H82.23L81.96 18.15H81.45L80.45 17.98L80.11 17.91L79.82 17.81L79.33 17.69L78.84 17.52L78.5 17.37L78.11 17.23L77.58 16.96L77.19 16.72L77.09 16.67L76.83 16.45L76.51 16.16L76.34 16.02L76.19 15.82L76 15.53L75.88 15.31L75.64 14.92L75.39 13.97V13.27V12.85L75.46 12.3L75.56 11.93L75.66 11.69L75.78 11.45L75.88 11.23L76.05 10.96L76.43 10.46L77.19 9.70001L77.43 9.58002L77.77 9.34003L78.18 9.14001L78.5 8.90002L78.77 8.75L78.99 8.66003H79.2L79.43 8.46002L80.3 8.21002L80.76 8.14001L81.32 8.07001L81.59 8.02002H81.91L82.44 7.96002H82.93H83.15H83.32L84.17 8.03003H84.31H84.51H84.75H84.97H85.26L85.89 8.27002L86.14 8.42004L86.35 8.52002L86.67 8.71002L87.28 8.98004L87.62 9.30005L88.15 9.71002L88.61 10.2L89.03 10.78L89.25 11.19V11.92V12.07L89.15 12.2401L88.96 12.41L88.52 12.67L88.06 12.84H87.67L87.28 12.67L87.04 12.5L86.77 12.23L86.36 11.79L86.02 11.5L85.8 11.33L85.39 11.11L85.12 10.9L84.56 10.65L84.17 10.56L83.51 10.48H83.08H82.42H81.84H81.35L80.62 10.62L79.92 10.94L79.62 11.11L79.24 11.37L78.75 11.81L78.6 12.18L78.51 12.47V12.91L78.61 13.34L78.76 13.73L78.88 13.9L79.07 14.05L79.41 14.32L79.92 14.51L80.68 14.73L81.14 14.82L81.43 14.9H81.7H82.01L82.23 14.95L82.43 15.46H82.6H82.84H83.33L83.62 15.53L84.03 15.6L84.52 15.72L84.76 15.8H85L85.1 15.87L85.73 15.95L86.85 16.2401L87.39 16.48L87.9 16.7L88.31 17.02L88.46 17.16L88.8 17.4L89.16 17.82L89.31 18.11L89.45 18.38L89.55 18.55L89.6 18.7401L89.74 19.13V19.47V19.57V19.92V20.82L89.64 21.37L89.55 21.76L89.42 22.1L89.3 22.35V22.52L89.13 22.81L88.91 23.12L88.72 23.34L88.55 23.56L88.43 23.68L88.26 23.9L88.04 24.12L87.75 24.31L87.34 24.58L87.09 24.73L86.92 24.83L86.68 24.95L86.44 25.05L86.27 25.12L85.93 25.21L85.44 25.39L84.81 25.53H84.22L83.86 25.58H83.37H82.43L81.89 25.68Z" fill="#231F20"/>
<path d="M97.5199 25.46H97.1099H96.8699L96.5299 25.26L96.3999 25.12L96.2599 24.97L96.1599 24.51V24V23.63V23.27V22.81V22.2V21.7401V21.23V20.81V19.81V18.11V17.53V17.34V17.07V16.46V15.8V15.39V14.73V13.95V13.46V13.27V13.02V12.64V12.32V12.13V11.86V11.45L96.0399 11.15L95.9399 11.08H95.4299H94.8499H94.6599H94.3399H93.8999H92.3499H91.8399L91.4999 11.01L91.2799 10.84L91.0799 10.62L90.9399 10.28V9.69L91.0099 9.04004L91.2299 8.63L91.4299 8.46002L91.7199 8.37H92.0599L92.4499 8.30005H92.7399H92.9399H94.1499H94.2799H95.6899H95.9999H96.5599H97.0899H97.7499H98.3299H98.7999H99.2799H99.8599H100.5H102.83L103.41 8.35004L103.9 8.42004L104.43 8.83002L104.6 9.42004V9.73004V9.95001L104.53 10.29L104.45 10.4901L104.36 10.63L104.19 10.83L103.72 10.97L102.97 11.07H102.14H101.51H99.7599L99.3699 11.16L99.2299 11.38V11.89V12.46V12.92V13.41V13.82V14.33V14.92V15.16V15.45V15.72V15.89V16.2V16.7401V16.98V17.17V17.44V17.71V17.98V18.34V18.68V19.07V19.46V19.71V19.85V20.21V20.87V21.2401V21.45V21.72V21.94V22.16V22.77V23.16L99.1799 23.47V23.69L99.2499 23.86V24.1V24.37V24.66L99.1499 24.95L98.9999 25.22L98.8299 25.29L98.3999 25.4901L98.1299 25.59L97.5199 25.46Z" fill="#231F20"/>
<path d="M107.81 25.34L107.32 25.1L107.1 24.63V24.1L107.05 23.83V23.34L107.1 22.91V22.42V21.89V21.42L107.05 20.79V20.14V19.8V19.14V18.31V17.93V17.2401V16.32V16V15.32V14.38V13.38V11.93V11.61V10.37V9.81V9.32001V8.91003V8.72003L107.22 8.45001L107.41 8.31L107.88 8.23004H108.36H108.43H108.8L109.23 8.30005L109.43 8.42004L109.6 8.59003L109.77 8.96002L110.04 9.37L110.33 9.91003L110.6 10.4901L111.03 11.2401L111.35 11.83L111.64 12.46L112.1 13.38L112.39 13.87L112.66 14.47L112.93 14.94L113.05 15.18L113.17 15.4L113.32 15.69L113.56 16.27L113.9 16.88L114.14 17.37L114.29 17.68L114.41 17.93L114.58 18.22L114.85 18.73L115.12 19.29L115.36 19.65L115.58 20.07L115.7 20.38L115.85 20.45L115.97 20.38L116.14 20.14L116.31 19.87L116.48 19.55L116.77 18.95L117.04 18.41L117.18 18.1L117.38 17.8L117.52 17.64L117.59 17.44L117.67 17.22L117.91 16.86L118.08 16.4901L118.23 16.27L118.45 15.86L118.69 15.35L118.91 14.89L119.13 14.4L119.35 13.96L119.59 13.6L119.85 13.02L120.17 12.43L120.46 11.78L120.83 11.05L121.05 10.59L121.12 10.32L121.31 9.98004L121.41 9.69L121.65 9.20001L122.02 8.62L122.31 8.42004L122.6 8.33002L123.7 8.23004H124.13L124.52 8.37L124.67 8.59003V8.76001V9.15002V11.61V12.12V12.67V14.86V15.47V15.81V16.32L124.75 17.05V17.63V18.39V20.23V20.84V21.23V21.55V22.08V22.57V23.2V23.93V24.46L124.63 24.9L124.49 25.07L124.24 25.22L124.05 25.29L123.76 25.36H123.34H123.03H122.78L122.54 25.29L122.25 25.14L121.93 24.46L121.86 23.71V23.2V22.39V21.39V19.39L121.79 18.59V18.06V17.67V17.14V16.67V16.41V15.77V15.7H121.72H121.67L121.55 15.87L121.48 16.09L121.31 16.38L121.19 16.62L121.04 16.87L120.87 17.21L120.65 17.7L120.41 18.23L120.14 18.62L119.9 19.03L119.68 19.47L119.51 19.83L119.24 20.32L118.88 21L118.71 21.41L118.54 21.88L118.22 22.46L118.1 22.75L117.98 22.92L117.88 23.14L117.76 23.33L117.66 23.53L117.39 24.04L117.17 24.5V24.65L116.95 24.96L116.51 25.28H116.19H115.9H115.56H115.22L114.95 25.16L114.69 24.79L114.4 24.19L114.2 23.82L114.01 23.38L113.74 22.8L113.5 22.36L113.35 22.02L113.25 21.81L113.13 21.56L112.62 20.71L112.5 20.54L112.26 20.01L112.01 19.5L111.89 19.25L111.63 18.84L111.33 18.16L111.09 17.67L110.92 17.28L110.63 16.8L110.34 16.17L110.04 15.63L109.87 15.44L109.8 15.51V15.88V16.43V16.85V17.04V17.36V17.72V18.43V18.91V19.84V20.22V21.22V21.8V22.22V22.65V22.9901V23.53V23.97L109.73 24.65L109.66 24.91L109.42 25.23L108.61 25.45H108.08L107.81 25.34Z" fill="#231F20"/>
<path d="M128.78 25.63L128.47 25.56L128.03 25.34L127.69 25.07L127.45 24.78L127.35 24.4901V24.05L127.57 23.61L127.72 23.25L127.84 22.98L127.98 22.69L128.2 22.18L128.35 21.79L128.81 20.87L129.05 20.33L129.27 19.77L129.66 19.02L129.9 18.46L130.07 18.12L130.24 17.75L130.44 17.34L130.78 16.47L131.07 15.96L131.26 15.42L131.6 14.69L131.99 13.79L132.21 13.31L132.58 12.38L132.84 11.82L132.96 11.46L133.18 11.05L133.35 10.71V10.51L133.45 10.27L133.57 9.92999L133.74 9.67999L133.89 9.39001L134.03 9.13L134.13 8.92999L134.3 8.64001L134.59 8.40002L135.2 8.28003H135.86L136.17 8.35004L136.44 8.59003L136.61 8.91003L136.75 9.20001L137 9.76001L137.24 10.29L137.7 11.19L137.85 11.58L138.02 11.9L138.16 12.33L138.36 12.77L138.48 13.11L138.65 13.45L138.92 14.06L139.19 14.6L139.36 15.03L139.53 15.32L139.62 15.59L139.79 15.96L140.01 16.34L140.16 16.73L140.3 17.15L140.45 17.39L140.57 17.71L140.81 18.14L141.01 18.63L141.32 19.38L141.76 20.21L142 20.79L142.17 21.16L142.27 21.38L142.37 21.69L142.66 22.27L142.88 22.7401L143 22.93L143.22 23.39L143.39 23.9L143.51 24.32L143.41 24.85L143.15 25.17L142.66 25.41L141.81 25.63L141.25 25.51L141.03 25.31L140.79 25.07L140.72 24.75L140.5 24.29L140.23 23.73L140.08 23.47L139.87 22.98L139.6 22.42L139.5 22.2L139.33 21.91L139.11 21.52L138.94 21.21L138.7 21.04L138.21 20.9901H137.61H134.76H133.96L133.33 21.04H132.99L132.57 21.09H132.19L131.87 21.26L131.72 21.48L131.24 22.48L130.99 22.91L130.92 23.18L130.8 23.42L130.65 23.76L130.46 24.18L130.34 24.54L130.1 24.93L129.8 25.37L129.54 25.59L129.15 25.68L128.78 25.63ZM137.41 18.2401H137.48L137.58 18.02L137.5 17.58L137.36 17.22L136.82 16.22L136.58 15.76L136.26 14.98L136.07 14.52L135.9 14.08L135.63 13.45L135.34 13.21L135.15 13.6L134.95 14.21L134.54 15.13L134.22 15.79L134 16.39L133.81 16.83L133.57 17.32V17.51V17.73V17.97L133.74 18.14H134.16H134.59H135.27H136.9L137.41 18.2401Z" fill="#231F20"/>
<path d="M152.17 25.82H151.73L151.27 25.67L150.76 25.57L150.52 25.5L150.13 25.38L149.45 25.18L148.98 24.9901L148.11 24.5L147.62 24.11L147.28 23.89L147.02 23.65L146.55 23.26L146.14 22.83L145.85 22.41L145.46 21.93L145.1 21.37L144.8 20.71L144.61 20.18L144.46 19.88L144.37 19.57L144.25 19.08L144.17 18.69V18.43L144.1 18.01L144.05 17.55V17.33V17.04V16.53V16.14V15.95V15.54L144.15 15.14V14.78L144.25 14.44V14.17L144.35 13.86L144.47 13.64L144.55 13.42V13.25L144.75 12.89L144.97 12.5L145.11 12.28L145.36 11.82L145.75 11.35L146.09 10.87L146.64 10.33L147.2 9.87L147.45 9.65002L147.84 9.41003L148.32 9.09003L148.59 8.95001L148.88 8.75L149.15 8.61005L149.42 8.51001L149.83 8.39001L150.44 8.19L151.02 8L151.53 7.92999L151.85 7.85004H152.4H152.89L153.45 7.92004L154.06 7.97003H154.23H154.59L155.08 8.09003L155.44 8.16003L155.69 8.24005L156.29 8.45001L156.66 8.65002L156.93 8.77002L157.14 8.92004L157.87 9.26001L158.34 9.62L158.72 9.89001L158.99 10.13L159.16 10.28L159.45 10.64L159.82 11.1L159.99 11.44L160.06 11.81L159.91 12.29L159.67 12.66L159.33 12.93L158.82 13.19H158.29L157.95 13.07L157.58 12.75L157.1 12.29L156.54 11.83L155.93 11.44L155.37 11.12L154.93 10.95L154.54 10.83L153.18 10.59L152.72 10.54H152.6L152.06 10.59L151.24 10.7401L150.7 10.86L150.34 11.03L149.8 11.3L149.29 11.61L149 11.86L148.78 12.07L148.59 12.2401L147.91 13.02L147.79 13.2401L147.62 13.48L147.35 14.07L147.15 14.55L147.03 14.94L146.86 15.48L146.77 16.18V17.01L146.84 17.42V18L146.89 18.42L146.98 18.81L147.13 19.15L147.28 19.44L147.45 19.68L147.59 19.95L147.81 20.17L147.98 20.39L148.2 20.73L148.39 20.97L148.76 21.29L149.46 21.87L150.26 22.33L150.95 22.6L151.6 22.77L152.04 22.87H152.6L153.55 22.8L154.03 22.73L154.66 22.56L155.13 22.41L155.95 22.02L156.46 21.68L156.83 21.34L157.29 20.83L157.51 20.52L157.75 20.15L157.99 19.71L158.24 19.23L158.33 18.84L158.38 18.52V18.28L158.06 18.09H157.06H156.37H156.13H155.23H154.5H154.21H153.87H153.65H153.43H152.92L152.53 17.94L152.33 17.65L152.24 17.26L152.16 16.61V16.12L152.26 15.85L152.46 15.56L152.7 15.42L152.94 15.34H153.94L154.86 15.27H155.59H155.91H156.43H158.16H158.62L159.62 15.32L160.47 15.39L160.72 15.46L160.98 15.61L161.35 16L161.59 16.75V17.75L161.49 18.63L161.4 19.09L161.32 19.31V19.65L161.11 20.21L160.94 20.7401L160.79 20.98L160.64 21.32L160.43 21.71L160.28 21.96L160.08 22.27L159.79 22.64L159.55 22.88L159.16 23.34L158.65 23.83L158.41 24.02L158.14 24.22L157.9 24.34L157.75 24.46L157.29 24.75L157.1 24.82L156.61 25.07L156.12 25.2401L155.76 25.31L155.42 25.43H155.22H155.01L154.64 25.53H154.23L154.01 25.61H153.55H153.09H152.79L152.17 25.82Z" fill="#231F20"/>
<path d="M165.2 25.31L164.74 25.19L164.4 24.85L164.3 24.51V23.95V22.95V22.37V21.98V21.42L164.25 20.81V20.4901V20.23L164.17 19.81V19.06L164.22 18.48L164.17 17.9901L164.25 17.56V17.26V16.82L164.18 16.39V16.1V15.71L164.11 15.03V14.61L164.18 13.88V13.18V12.52V12.04V9.70001V9.22003L164.28 8.83002L164.4 8.61005L164.55 8.46002L164.86 8.25L165.33 8.20001H165.76H166.27L166.66 8.32001L166.86 8.54004L167.05 8.86005V9.29004V9.90002V10.32V10.58V11V11.6V12.19L167.1 12.6V13.21V13.96V14.46V14.8V15.46V15.9901V16.65V17.79L167.05 18.47V18.79V19V20.37V20.75V22.02V22.28V23.46V24.02L166.93 24.7L166.81 24.96L166.69 25.11L166.52 25.18L166.08 25.35H165.57H165.38L165.2 25.31Z" fill="#231F20"/>
<path d="M178.96 25.85H178.49H177.94L177.47 25.75L176.33 25.56L176.02 25.44L175.24 25.17L175 25.05L174.73 24.9L174.48 24.78L174.34 24.66L174 24.4901L173.71 24.27L173.42 24.1L173.15 23.83L173.03 23.73L172.76 23.4901L172.49 23.2L172.15 22.83L171.86 22.45L171.69 22.25L171.49 22.01L171.32 21.7401L171.08 21.33L170.86 20.89L170.72 20.57L170.55 20.16L170.33 19.72L170.26 19.41L170.13 19.07V18.75L170.06 18.51V18.09L169.99 17.73V17.17V16.76V16.03L170.11 15.59V15.32L170.26 14.7401L170.45 13.9901L170.7 13.43L170.84 13.04L170.99 12.75L171.21 12.38L171.28 12.19V12.12L171.47 11.85L171.81 11.41L172.18 10.95L172.52 10.56L172.83 10.2401L173.32 9.86005L173.93 9.44L174.41 9.10004L175.14 8.71002L175.55 8.54004L175.92 8.42004L176.31 8.30005L176.62 8.23004L177.3 8.06L177.69 7.99005H177.91H178.4H178.91H179.43L179.97 8.06H180.16L180.65 8.11005L181.16 8.25L181.86 8.47003L182.52 8.72003L182.69 8.81L183.13 9.06L183.69 9.32001L184.2 9.71002L184.66 10.05L185 10.32L185.39 10.68L185.73 11.1L186.02 11.53L186.14 11.85V12.2401L185.92 12.63L185.67 12.94L185.29 13.33L184.97 13.5H184.56L184.19 13.43L183.9 13.21L183.51 12.82L183.12 12.48L182.83 12.14L182.44 11.85L182.17 11.65L181.74 11.44L181.32 11.22L180.91 11.12L180.3 10.95L179.87 10.85H179.33L178.75 10.78L178.12 10.88L177.68 10.95L177.22 11.07L176.75 11.22L176.24 11.46L175.64 11.8L175.32 11.9901L175.08 12.21L174.71 12.53L174.42 12.82L174.15 13.16L173.77 13.67L173.43 14.46L173.12 15.26L173.04 15.65V15.9901V16.5V17.06L173.13 17.67L173.21 18.3L173.33 18.71L173.4 19.13L173.55 19.54L173.69 19.73L173.81 20L173.91 20.27L173.96 20.37L174.15 20.58L174.44 21.02L174.69 21.31L174.91 21.53L175.25 21.8L175.64 22.14L175.93 22.31L176.44 22.58L176.92 22.82L177.26 22.92L177.73 23.01L178.43 23.14H178.87L179.69 23.09L180.38 22.9901L180.91 22.87L181.42 22.7L181.78 22.56L182.17 22.34L182.66 22L183.1 21.66L183.8 20.95L184.04 20.69L184.41 20.51H184.87L185.6 20.77L186.21 21.43L186.35 21.82V22.11L186.23 22.52L185.96 22.96L185.67 23.25L185.26 23.69L184.09 24.4901L183.68 24.71L183.48 24.86L182.14 25.47L181.83 25.54L181.46 25.63L181.15 25.71L180.81 25.81H180.1L179.59 25.89L178.96 25.85Z" fill="#231F20"/>
</g>
<defs>
<clipPath id="clip0_80_360">
<rect width="186.23" height="33.68" fill="white"/>
</clipPath>
</defs>
</svg>
