<svg width="106" height="31" viewBox="0 0 106 31" fill="none" xmlns="http://www.w3.org/2000/svg">
<path d="M22.7752 6.24922C22.7802 6.23748 22.7827 6.22488 22.7827 6.21214C22.7827 6.1994 22.7802 6.1868 22.7752 6.17506C22.7594 6.13868 22.7345 6.10694 22.703 6.08284C22.6715 6.05874 22.6344 6.04308 22.5951 6.03735C22.3515 6.03735 20.1269 5.82549 20.1269 5.82549C20.1269 5.82549 18.538 4.23652 18.3261 4.13059C18.1142 4.02466 18.2202 4.03525 18.1672 4.03525C18.0104 3.99904 17.8473 3.99904 17.6905 4.03525C17.6905 4.03525 17.3727 4.14119 16.8431 4.35305C16.3134 2.85942 15.36 1.48231 13.7711 1.48231H13.6651C13.4927 1.21905 13.2567 1.00344 12.979 0.855338C12.7013 0.707237 12.3908 0.631417 12.0762 0.634864C8.26263 0.528933 6.4618 5.29584 5.82621 7.73225C4.97877 7.94411 4.13132 8.26191 3.17794 8.5797C2.22455 8.89749 2.33049 8.89749 2.22455 9.63901C2.11862 10.1687 0 26.9058 0 26.9058L16.8431 30.0837L25.9531 28.071C25.9531 28.071 22.7752 6.46108 22.7752 6.24922ZM13.5592 5.1899V5.40177L10.4872 6.24922C11.1228 4.02466 12.1821 3.07128 13.1355 2.64756C13.424 3.46377 13.5674 4.32422 13.5592 5.1899ZM11.9702 1.58824C12.1821 1.58824 12.288 1.69418 12.4999 1.80011C11.2287 2.32976 9.95753 3.70687 9.32194 6.67294L6.99146 7.30853C7.73298 5.1899 9.21601 1.58824 11.9702 1.58824ZM12.6058 14.5118C11.9149 14.1665 11.1536 13.9853 10.3813 13.9822C8.58043 13.9822 8.47449 15.0415 8.47449 15.3593C8.47449 16.8423 12.4999 17.4779 12.4999 21.0796C12.4999 23.9397 10.699 25.7405 8.26263 25.7405C7.45331 25.7586 6.64911 25.6078 5.90132 25.2977C5.15353 24.9876 4.47856 24.5252 3.91945 23.9397L4.66097 21.3974C5.4388 22.0754 6.39455 22.5165 7.41518 22.6685C7.57229 22.6852 7.73115 22.6666 7.88011 22.6139C8.02907 22.5612 8.16436 22.4759 8.27608 22.3642C8.3878 22.2525 8.47311 22.1172 8.52577 21.9682C8.57843 21.8193 8.59711 21.6604 8.58043 21.5033C8.58043 19.4906 5.29656 19.3847 5.29656 16.1008C5.29656 13.3466 7.30925 10.6983 11.2287 10.6983C12.0996 10.5721 12.9882 10.7202 13.7711 11.122L12.6058 14.5118ZM14.5126 4.97804V4.66025C14.5337 3.87133 14.4264 3.08422 14.1948 2.32976C14.6282 2.54674 15.0063 2.86 15.3001 3.24558C15.5939 3.63115 15.7955 4.07881 15.8897 4.55432L14.5126 4.97804Z" fill="#686F8B"/>
<path d="M36.6522 17.372C35.6988 16.8423 35.2751 16.4186 35.2751 15.8889C35.2751 15.1474 35.9107 14.7237 36.97 14.7237C37.7399 14.7464 38.497 14.9266 39.1946 15.2533L40.042 12.711C39.1472 12.1861 38.1072 11.9633 37.076 12.0754C33.898 12.0754 31.7794 13.8762 31.7794 16.4186C31.8389 17.1243 32.0865 17.8011 32.4963 18.3787C32.9062 18.9562 33.4634 19.4133 34.1099 19.7024C35.1692 20.338 35.5929 20.7618 35.5929 21.3973C35.5929 22.0329 35.0633 22.6685 34.004 22.6685C32.9755 22.6229 31.9668 22.3707 31.0379 21.927L30.1904 24.4693C31.2567 25.0649 32.4655 25.358 33.6862 25.3168C36.8641 25.3168 39.1946 23.7278 39.1946 20.8677C39.1314 20.1081 38.861 19.3804 38.4126 18.764C37.9643 18.1476 37.3554 17.6661 36.6522 17.372ZM49.4699 11.9695C48.7306 11.9735 48.0021 12.1476 47.3408 12.4782C46.6796 12.8089 46.1032 13.2872 45.6564 13.8762L47.0335 6.67291H43.4318L39.9361 24.999H43.5378L44.703 18.7491C45.1267 16.4186 46.3979 14.9355 47.5631 14.9355C48.4106 14.9355 48.7284 15.4652 48.7284 16.3126C48.7459 16.8445 48.7104 17.3768 48.6225 17.9016L47.2453 25.1049H50.847L52.2241 17.6898C52.3424 16.918 52.4131 16.1397 52.436 15.3593C52.436 13.2406 51.3767 11.9695 49.4699 11.9695ZM58.6859 22.4567C57.4147 22.4567 56.991 21.3973 56.991 20.1262C56.991 18.1135 58.0503 14.7237 59.9571 14.7237C61.2283 14.7237 61.652 15.783 61.652 16.8423C61.652 19.1728 60.5927 22.4567 58.6859 22.4567ZM60.4867 11.9695C56.1436 11.9695 53.2834 15.8889 53.2834 20.2321C53.238 20.8976 53.3357 21.5652 53.5698 22.1898C53.8039 22.8145 54.1692 23.3817 54.6409 23.8534C55.1126 24.3251 55.6798 24.6903 56.3045 24.9245C56.9291 25.1586 57.5967 25.2563 58.2622 25.2109C62.4994 25.2109 65.3596 21.3973 65.3596 16.9482C65.4104 16.2905 65.3201 15.6295 65.0947 15.0096C64.8692 14.3896 64.5139 13.825 64.0525 13.3536C63.5911 12.8821 63.0342 12.5147 62.4193 12.276C61.8043 12.0373 61.1454 11.9328 60.4867 11.9695ZM71.0799 22.5626C70.537 22.5758 70.0085 22.387 69.5968 22.0329L70.2324 18.6431C70.6561 16.4186 71.8214 14.9355 73.0926 14.9355C74.1519 14.9355 74.5756 15.9949 74.5756 16.9482C74.4697 19.2787 73.0926 22.5626 71.0799 22.5626ZM74.5756 11.9695C73.8199 12.006 73.0828 12.2162 72.4215 12.5836C71.7602 12.951 71.1923 13.4658 70.7621 14.0881L70.9739 12.1813H67.796C67.6365 13.7827 67.3889 15.3741 67.0545 16.9482L64.5121 30.0837H68.1138L69.0672 24.7871H69.1731C69.8354 25.0955 70.5618 25.2408 71.2917 25.2109C75.529 25.2109 78.2832 20.8677 78.2832 16.5245C78.2832 14.194 77.2239 11.9695 74.5756 11.9695ZM83.3679 6.88477C83.0953 6.88738 82.826 6.94475 82.576 7.05348C82.3261 7.16222 82.1005 7.32009 81.9127 7.51773C81.725 7.71536 81.5789 7.94872 81.4831 8.20394C81.3873 8.45916 81.3438 8.73103 81.3552 9.0034C81.3324 9.23652 81.3597 9.47183 81.4353 9.69353C81.5109 9.91522 81.6331 10.1182 81.7937 10.2887C81.9542 10.4593 82.1494 10.5936 82.3661 10.6825C82.5828 10.7714 82.816 10.8129 83.0501 10.8042C83.3327 10.8212 83.6158 10.7781 83.8805 10.6776C84.1453 10.5771 84.3857 10.4217 84.5859 10.2214C84.7861 10.0212 84.9416 9.78078 85.0421 9.51604C85.1425 9.2513 85.1857 8.96826 85.1687 8.6856C85.1792 8.44631 85.1398 8.20745 85.0531 7.98421C84.9663 7.76096 84.834 7.55821 84.6646 7.38884C84.4953 7.21947 84.2925 7.0872 84.0693 7.00042C83.846 6.91364 83.6072 6.87426 83.3679 6.88477ZM78.3891 24.999H81.9908L84.4272 12.2873H80.8255L78.3891 24.999ZM93.5373 12.2873H90.9949L91.1009 11.6517C91.3127 10.3805 92.0542 9.32119 93.2195 9.32119C93.6171 9.32502 94.0112 9.39667 94.3847 9.53305L95.1262 6.67291C94.5203 6.43336 93.8704 6.32504 93.2195 6.35512C91.9507 6.30095 90.7063 6.71574 89.7237 7.52036C88.5778 8.58026 87.83 10.0011 87.6051 11.5457L87.4992 12.1813H85.8043L85.2746 14.9355H86.9695L85.0628 24.999H88.6644L90.5712 14.9355H93.0076L93.5373 12.2873ZM102.118 12.2873C102.118 12.2873 99.8931 17.9016 98.8338 20.9736C98.7279 20.0202 97.9864 12.2873 97.9864 12.2873H94.1729L96.2915 23.9397C96.3082 24.157 96.2718 24.3751 96.1856 24.5753C95.7255 25.4217 95.0722 26.1475 94.2788 26.6939C93.6664 27.1484 92.9875 27.5057 92.2661 27.7532L93.2195 30.8252C94.5319 30.5075 95.7376 29.8499 96.7152 28.9185C98.6879 26.8561 100.267 24.4509 101.376 21.8211L105.719 12.3932L102.118 12.2873Z" fill="#686F8B"/>
</svg>
