<svg width="132" height="15" viewBox="0 0 132 15" fill="none" xmlns="http://www.w3.org/2000/svg">
<path d="M5.08807 14.2045C6.98011 14.2045 7.61932 13.0284 7.9517 12.4915H8.13068V14H9.58807V4.18182H8.07955V5.74148H7.9517C7.61932 5.23011 7.03125 4.05398 5.11364 4.05398C2.63352 4.05398 0.920455 6.02273 0.920455 9.11648C0.920455 12.2358 2.63352 14.2045 5.08807 14.2045ZM5.29261 12.8494C3.40057 12.8494 2.42898 11.1875 2.42898 9.09091C2.42898 7.01989 3.375 5.40909 5.29261 5.40909C7.13352 5.40909 8.10511 6.89205 8.10511 9.09091C8.10511 11.3153 7.10795 12.8494 5.29261 12.8494ZM14.0689 8.09375C14.0689 6.38068 15.13 5.40909 16.5746 5.40909C17.9744 5.40909 18.8246 6.32315 18.8246 7.86364V14H20.3331V7.76136C20.3331 5.25568 18.9972 4.05398 17.0092 4.05398C15.5263 4.05398 14.6058 4.71875 14.1456 5.71591H14.0178V4.18182H12.5604V14H14.0689V8.09375ZM26.7971 14.2045C28.6891 14.2045 29.3283 13.0284 29.6607 12.4915H29.8397V14H31.2971V0.909091H29.7885V5.74148H29.6607C29.3283 5.23011 28.7402 4.05398 26.8226 4.05398C24.3425 4.05398 22.6294 6.02273 22.6294 9.11648C22.6294 12.2358 24.3425 14.2045 26.7971 14.2045ZM27.0016 12.8494C25.1096 12.8494 24.138 11.1875 24.138 9.09091C24.138 7.01989 25.084 5.40909 27.0016 5.40909C28.8425 5.40909 29.8141 6.89205 29.8141 9.09091C29.8141 11.3153 28.8169 12.8494 27.0016 12.8494ZM43.3972 14.179C45.8901 14.179 47.7182 12.3381 47.7182 9.83239C47.7182 7.29474 45.954 5.43466 43.5506 5.43466C42.6685 5.43466 41.812 5.74787 41.275 6.17614H41.1983L41.6586 2.31534H47.1301V0.909091H40.329L39.5364 7.35227L41.0194 7.53125C41.5627 7.14134 42.4895 6.86009 43.2949 6.86648C44.9632 6.87926 46.1841 8.14489 46.1841 9.85795C46.1841 11.5391 45.008 12.7727 43.3972 12.7727C42.0549 12.7727 40.9874 11.9098 40.8659 10.7273H39.3319C39.4277 12.7216 41.1472 14.179 43.3972 14.179ZM54.5273 14.179C57.4165 14.179 59.0785 11.7308 59.0785 7.45455C59.0785 3.21023 57.391 0.730113 54.5273 0.730113C51.6637 0.730113 49.9762 3.21023 49.9762 7.45455C49.9762 11.7308 51.6381 14.179 54.5273 14.179ZM54.5273 12.7727C52.6225 12.7727 51.5103 10.8615 51.5103 7.45455C51.5103 4.05398 52.6353 2.1108 54.5273 2.1108C56.4194 2.1108 57.5444 4.05398 57.5444 7.45455C57.5444 10.8615 56.4322 12.7727 54.5273 12.7727ZM65.3683 13.1051H66.8001V9.60227H70.3029V8.17045H66.8001V4.66761H65.3683V8.17045H61.8654V9.60227H65.3683V13.1051ZM82.4494 14.2045C85.1085 14.2045 86.8983 12.1847 86.8983 9.14205C86.8983 6.07386 85.1085 4.05398 82.4494 4.05398C79.7903 4.05398 78.0005 6.07386 78.0005 9.14205C78.0005 12.1847 79.7903 14.2045 82.4494 14.2045ZM82.4494 12.8494C80.4295 12.8494 79.5091 11.1108 79.5091 9.14205C79.5091 7.1733 80.4295 5.40909 82.4494 5.40909C84.4693 5.40909 85.3897 7.1733 85.3897 9.14205C85.3897 11.1108 84.4693 12.8494 82.4494 12.8494ZM93.4709 4.18182H91.3743V1.82955H89.8658V4.18182H88.3828V5.46023H89.8658V11.5966C89.8658 13.3097 91.2464 14.1278 92.5249 14.1278C93.0874 14.1278 93.4453 14.0256 93.6499 13.9489L93.343 12.5938C93.2152 12.6193 93.0107 12.6705 92.6783 12.6705C92.0135 12.6705 91.3743 12.4659 91.3743 11.1875V5.46023H93.4709V4.18182ZM97.4595 8.09375C97.4595 6.38068 98.5526 5.40909 100.042 5.40909C101.461 5.40909 102.317 6.30398 102.317 7.86364V14H103.826V7.76136C103.826 5.23651 102.484 4.05398 100.477 4.05398C98.9297 4.05398 98.0476 4.69957 97.5874 5.71591H97.4595V0.909091H95.951V14H97.4595V8.09375ZM110.702 14.2045C112.697 14.2045 114.154 13.2074 114.614 11.7244L113.157 11.3153C112.773 12.3381 111.885 12.8494 110.702 12.8494C108.932 12.8494 107.711 11.7053 107.64 9.60227H114.768V8.96307C114.768 5.30682 112.594 4.05398 110.549 4.05398C107.89 4.05398 106.126 6.15057 106.126 9.16761C106.126 12.1847 107.864 14.2045 110.702 14.2045ZM107.64 8.2983C107.743 6.7706 108.823 5.40909 110.549 5.40909C112.185 5.40909 113.233 6.63636 113.233 8.2983H107.64ZM117.062 14H118.571V7.78693C118.571 6.46378 119.619 5.4858 121.051 5.4858C121.428 5.4858 121.709 5.55611 121.92 5.66477L122.432 4.38636C122.125 4.16903 121.722 4.02841 121.179 4.02841C119.99 4.02841 118.974 4.69318 118.622 5.66477H118.52V4.18182H117.062V14ZM130.925 6.38068C130.452 4.98722 129.391 4.05398 127.448 4.05398C125.377 4.05398 123.843 5.23011 123.843 6.89205C123.843 8.24716 124.648 9.15483 126.451 9.5767L128.087 9.96023C129.078 10.1903 129.544 10.6634 129.544 11.3409C129.544 12.1847 128.65 12.875 127.243 12.875C126.01 12.875 125.236 12.3445 124.968 11.2898L123.536 11.6477C123.887 13.3161 125.262 14.2045 127.269 14.2045C129.551 14.2045 131.104 12.9581 131.104 11.2642C131.104 9.89631 130.248 9.03338 128.496 8.60511L127.039 8.24716C125.875 7.95952 125.351 7.5696 125.351 6.81534C125.351 5.97159 126.246 5.35795 127.448 5.35795C128.765 5.35795 129.308 6.08665 129.57 6.7642L130.925 6.38068Z" fill="#686F8B"/>
</svg>
