<svg width="106" height="31" viewBox="0 0 106 31" fill="none" xmlns="http://www.w3.org/2000/svg">
<path d="M36.6936 23.2062C36.707 23.6787 36.6204 24.1487 36.4394 24.5853C36.2584 25.0219 35.9872 25.4154 35.6436 25.7399C35.3017 26.0705 34.8976 26.3299 34.4547 26.5031C34.0118 26.6762 33.5389 26.7597 33.0635 26.7487C32.379 26.7697 31.6995 26.626 31.0821 26.3297C30.4647 26.0334 29.9276 25.5931 29.5159 25.0458L30.4886 23.9416C31.2746 24.8274 32.1088 25.2694 32.9912 25.2677C33.5589 25.2719 34.1089 25.0702 34.5393 24.7001C34.7544 24.5304 34.9276 24.3134 35.0452 24.066C35.1629 23.8185 35.222 23.5473 35.2178 23.2733C35.2111 22.9731 35.1349 22.6784 34.9952 22.4126C34.8556 22.1467 34.6562 21.9167 34.4129 21.7408C33.9209 21.3838 33.3966 21.0737 32.8468 20.8145C32.1236 20.4772 31.4639 20.0181 30.8962 19.4574C30.3444 18.8732 30.0434 18.0961 30.0577 17.2927C30.043 16.8652 30.1196 16.4395 30.2824 16.044C30.4453 15.6485 30.6906 15.2922 31.002 14.999C31.637 14.4052 32.4808 14.0862 33.3499 14.1115C34.4541 14.1115 35.5662 14.6524 36.6859 15.7343L35.6926 16.7664C34.8704 15.9717 34.0663 15.5744 33.2802 15.5744C32.8133 15.5696 32.3611 15.7378 32.0108 16.0465C31.8363 16.1884 31.6962 16.3679 31.601 16.5717C31.5058 16.7755 31.458 16.9982 31.4613 17.223C31.4613 18.0125 32.2258 18.8029 33.7549 19.5941C34.5062 19.9501 35.1973 20.421 35.8035 20.9899C36.0912 21.282 36.3181 21.6284 36.4709 22.0088C36.6237 22.3893 36.6994 22.7963 36.6936 23.2062Z" fill="#686F8B"/>
<path d="M48.9958 26.4391H47.4478V20.7113C47.4478 19.3284 47.391 18.4047 47.2826 17.9403C46.9008 16.3458 45.8946 15.5477 44.2639 15.546C43.3456 15.5435 42.4567 15.8703 41.7587 16.4671C41.0364 17.0561 40.5248 17.8637 40.3009 18.7685C40.1513 19.3447 40.0773 20.4335 40.0791 22.0349V26.4391H38.531V9.77949H40.0791V16.5728C41.3227 14.9319 42.8234 14.1114 44.5813 14.1114C45.418 14.1001 46.24 14.3323 46.9472 14.7797C47.64 15.2192 48.1806 15.8616 48.4953 16.6193C48.8393 17.3985 49.0061 18.6094 48.9958 20.252V26.4391Z" fill="#686F8B"/>
<path d="M61.7719 20.5049C61.7887 19.2311 61.303 18.0019 60.4199 17.0837C59.9938 16.6294 59.479 16.2674 58.9074 16.0198C58.3359 15.7723 57.7196 15.6446 57.0968 15.6446C56.4739 15.6446 55.8576 15.7723 55.2861 16.0198C54.7145 16.2674 54.1998 16.6294 53.7736 17.0837C52.8903 18.0016 52.4053 19.2312 52.4242 20.5049C52.4205 21.3406 52.6291 22.1636 53.0306 22.8966C53.423 23.6335 54.0149 24.2451 54.7386 24.6614C55.4573 25.0717 56.2718 25.2845 57.0993 25.2781C58.9174 25.2781 60.2651 24.4954 61.1423 22.9302C61.558 22.1896 61.7748 21.3541 61.7719 20.5049ZM63.3509 20.4714C63.3686 21.2998 63.2176 22.1231 62.9071 22.8913C62.5966 23.6596 62.1331 24.3566 61.5448 24.9401C60.669 25.8298 59.5471 26.4371 58.3233 26.684C57.0995 26.9309 55.8299 26.8061 54.6776 26.3255C53.5254 25.845 52.5433 25.0307 51.8575 23.9875C51.1718 22.9442 50.8139 21.7197 50.8297 20.4714C50.8067 18.8693 51.3996 17.3195 52.4862 16.142C53.0723 15.5067 53.7836 14.9998 54.5754 14.653C55.3671 14.3063 56.2221 14.1272 57.0864 14.1272C57.9508 14.1272 58.8058 14.3063 59.5975 14.653C60.3892 14.9998 61.1006 15.5067 61.6867 16.142C62.7725 17.3164 63.3679 18.8617 63.3509 20.461V20.4714Z" fill="#686F8B"/>
<path d="M76.2929 20.4507C76.2914 19.6008 76.071 18.7655 75.653 18.0255C75.2464 17.2862 74.6462 16.6716 73.9166 16.2478C73.1921 15.8267 72.368 15.6075 71.5301 15.6131C70.8958 15.5956 70.265 15.7123 69.679 15.9555C69.093 16.1987 68.565 16.5629 68.1295 17.0244C67.6847 17.4858 67.3362 18.0313 67.1046 18.6289C66.8729 19.2264 66.7626 19.8642 66.7801 20.5049C66.7801 22.4176 67.5705 23.8143 69.1512 24.6949C69.8824 25.1138 70.7106 25.3336 71.5533 25.3322C72.3928 25.3358 73.2169 25.1072 73.9347 24.6717C74.6495 24.2241 75.2401 23.6038 75.6522 22.868C76.0644 22.1321 76.2847 21.3044 76.2929 20.461V20.4507ZM77.859 20.3965C77.8772 21.221 77.7317 22.041 77.431 22.8089C77.1303 23.5768 76.6803 24.2775 76.1071 24.8704C75.5494 25.4745 74.8704 25.9541 74.1146 26.2778C73.3587 26.6015 72.5431 26.7619 71.721 26.7487C69.8152 26.7487 68.2112 25.9566 66.9091 24.3724V30.8252H65.3611V14.4211H66.9091V16.6348C68.1304 14.956 69.7197 14.1166 71.6771 14.1166C72.4961 14.1034 73.3089 14.2606 74.064 14.5782C74.8191 14.8957 75.4999 15.3668 76.0632 15.9614C76.645 16.5422 77.1038 17.2343 77.4123 17.9963C77.7208 18.7583 77.8728 19.5746 77.859 20.3965Z" fill="#686F8B"/>
<path d="M85.2173 15.7575H82.7637V26.4391H81.195V15.7575H79.0845V14.4211H81.195V9.95753H82.7637V14.4211H85.2173V15.7575Z" fill="#686F8B"/>
<path d="M96.7479 19.2148C96.3626 17.6995 95.5413 16.6494 94.2839 16.0646C93.6447 15.7672 92.948 15.614 92.2431 15.6156C91.1232 15.5929 90.0367 15.9969 89.2037 16.7457C88.5845 17.2944 88.1167 18.1174 87.8002 19.2148H96.7479ZM98.4404 20.5642H87.6376C87.6284 21.7994 88.0769 22.9943 88.8967 23.9183C89.3049 24.378 89.8089 24.7426 90.3733 24.9864C90.9376 25.2303 91.5486 25.3474 92.1631 25.3296C93.3553 25.362 94.5163 24.9458 95.4166 24.1634C95.9378 23.6645 96.3806 23.0895 96.7298 22.458L98.0328 23.1417C97.2226 24.7259 96.0994 25.794 94.6632 26.3462C93.9042 26.6289 93.0993 26.768 92.2895 26.7564C91.4601 26.7808 90.6345 26.6344 89.864 26.3264C89.0935 26.0183 88.3945 25.5553 87.8105 24.9658C87.2251 24.3758 86.7658 23.6729 86.4607 22.8998C86.1555 22.1267 86.0108 21.2995 86.0354 20.4688C86.0168 18.9836 86.5127 17.5378 87.439 16.3768C88.6258 14.8597 90.2134 14.1011 92.2018 14.1011C94.2469 14.1011 95.881 14.8751 97.1039 16.4232C97.9726 17.5395 98.4155 18.9156 98.4327 20.5513L98.4404 20.5642Z" fill="#686F8B"/>
<path d="M105.781 15.7575H103.33V26.4391H101.761V15.7575H99.6504V14.4211H101.761V9.95753H103.33V14.4211H105.781V15.7575Z" fill="#686F8B"/>
<path d="M12.7688 14.243H0V27.0119H12.7688V14.243Z" fill="#686F8B"/>
<path d="M26.3787 14.243H13.6099V27.0119H26.3787V14.243Z" fill="#686F8B"/>
<path d="M19.49 0.633128H6.72119V13.4019H19.49V0.633128Z" fill="#686F8B"/>
</svg>
