<svg width="78" height="31" viewBox="0 0 78 31" fill="none" xmlns="http://www.w3.org/2000/svg">
<path fill-rule="evenodd" clip-rule="evenodd" d="M44.4023 1.21314C42.8464 2.03636 42.2904 3.39404 42.2904 7.14811C42.8541 6.63773 43.5093 6.2385 44.2213 5.97147C44.9311 5.71633 45.5992 5.35758 46.2039 4.90688C47.497 3.95004 47.6909 2.72598 47.6909 0.65714C47.6909 0.65714 45.5574 0.592486 44.4023 1.21314Z" fill="#686F8B"/>
<path fill-rule="evenodd" clip-rule="evenodd" d="M35.2866 2.10532C34.4891 2.89046 33.9277 3.88342 33.666 4.97151L29.4852 21.0222L26.0372 7.85927C25.701 6.48435 25.0803 4.72584 24.1235 3.57074C22.921 2.10531 20.4556 2.0148 20.1884 2.0148C19.9212 2.0148 17.4343 2.10531 16.2102 3.59229C15.2534 4.77325 14.6327 6.5059 14.2965 7.90237L10.8485 21.061L6.7151 4.98876C6.46705 3.89438 5.90186 2.89741 5.0902 2.12255C3.04722 0.32094 0 0.700226 0 0.700226L7.93485 30.7975C7.93485 30.7975 10.5597 30.9958 11.8699 30.3062C13.594 29.4441 14.4258 28.7502 15.4732 24.6384C16.4042 20.9921 19.0074 10.2772 19.2488 9.50141C19.3609 9.12212 19.516 8.20839 20.1841 8.20839C20.8521 8.20839 21.0073 9.09626 21.1194 9.50141C21.3607 10.2557 23.9425 20.9921 24.8993 24.6384C25.9424 28.7287 26.7656 29.3795 28.4982 30.3062C29.7913 30.9958 32.4333 30.7975 32.4333 30.7975L40.3682 0.721777C40.3682 0.721777 37.3253 0.342491 35.278 2.12255L35.2866 2.10532ZM47.691 5.59217C47.2597 6.17757 46.7068 6.66277 46.0704 7.01449C45.3334 7.41533 44.6438 7.7041 43.8895 8.06184C42.6439 8.66094 42.2905 9.35486 42.2905 10.372V30.7803C42.2905 30.7803 44.3119 31.0259 45.6006 30.3794C47.2902 29.5174 47.6695 28.6899 47.691 24.9358V5.59217ZM67.5174 15.7984L77.59 0.769189C77.59 0.769189 73.3446 0.0364791 71.2326 1.9717C70.1706 3.01874 69.2109 4.16466 68.3664 5.39391L64.6598 10.7729C64.4615 11.0401 64.2633 11.3504 63.884 11.3504C63.7135 11.3348 63.5507 11.2726 63.4131 11.1708C63.2756 11.0689 63.1686 10.9313 63.1038 10.7729L59.3713 5.41545C58.5316 4.18259 57.5715 3.03623 56.5051 1.99325C54.4147 0.0580242 50.1477 0.79074 50.1477 0.79074L60.2376 15.7769L50.1477 30.7372C50.1477 30.7372 54.5914 31.3147 56.6818 29.3795C57.6841 28.3957 58.5785 27.3077 59.3498 26.134L63.0521 20.7723C63.2504 20.505 63.453 20.1947 63.8279 20.1947C63.9987 20.2094 64.1619 20.2712 64.2997 20.3732C64.4374 20.4751 64.5441 20.6133 64.6081 20.7723L68.2975 26.1297C69.1097 27.2848 70.0165 28.3703 71.0085 29.3752C73.0989 31.3104 77.4736 30.7328 77.4736 30.7328L67.5174 15.7941V15.7984Z" fill="#686F8B"/>
</svg>
