<svg width="150" height="31" viewBox="0 0 150 31" fill="none" xmlns="http://www.w3.org/2000/svg">
<path d="M43.0487 9.15576C42.3022 9.01061 41.5764 9.42534 40.8921 10.4414C40.3621 11.1809 39.9882 12.0204 39.7931 12.909C39.6915 13.4071 39.6428 13.9145 39.6479 14.4228C39.6554 15.0694 39.7819 15.7091 40.0212 16.3098C40.3322 17.1185 40.747 17.554 41.2446 17.6577C41.7423 17.7613 42.3229 17.5332 42.9243 16.9941C43.6915 16.3098 44.2099 15.2937 44.5002 13.9251C44.5926 13.4187 44.6412 12.9053 44.6454 12.3906C44.638 11.744 44.5114 11.1044 44.2721 10.5036C43.9611 9.69491 43.5464 9.25944 43.0487 9.15576Z" fill="#686F8B"/>
<path d="M30.047 9.15576C29.3005 9.01061 28.5747 9.42534 27.8904 10.4414C27.3604 11.1809 26.9865 12.0204 26.7914 12.909C26.6898 13.4071 26.6411 13.9145 26.6462 14.4228C26.6537 15.0694 26.7802 15.7091 27.0195 16.3098C27.3305 17.1185 27.7453 17.554 28.2429 17.6577C28.7406 17.7613 29.3212 17.5332 29.9226 16.9941C30.6898 16.3098 31.2082 15.2937 31.4985 13.9251C31.6011 13.4202 31.6498 12.9058 31.6437 12.3906C31.6363 11.744 31.5097 11.1044 31.2704 10.5036C30.9594 9.69491 30.5447 9.25944 30.047 9.15576Z" fill="#686F8B"/>
<path d="M45.9932 0.633128H4.70719C4.08729 0.633122 3.4735 0.755555 2.90104 0.993407C2.32859 1.23126 1.80876 1.57984 1.37138 2.01914C0.934013 2.45844 0.587719 2.9798 0.352385 3.55329C0.117052 4.12679 -0.00268516 4.74111 4.56794e-05 5.36101V21.1206C-0.000226847 21.7416 0.121876 22.3565 0.359378 22.9302C0.59688 23.504 0.945124 24.0253 1.3842 24.4643C1.82328 24.9034 2.34459 25.2517 2.91832 25.4892C3.49206 25.7267 4.10698 25.8488 4.72793 25.8485H24.2823L33.2196 30.8252L31.1875 25.8485H45.9932C46.6142 25.8488 47.2291 25.7267 47.8028 25.4892C48.3765 25.2517 48.8979 24.9034 49.3369 24.4643C49.776 24.0253 50.1243 23.504 50.3618 22.9302C50.5993 22.3565 50.7214 21.7416 50.7211 21.1206V5.36101C50.7214 4.74006 50.5993 4.12514 50.3618 3.5514C50.1243 2.97767 49.776 2.45636 49.3369 2.01728C48.8979 1.5782 48.3765 1.22996 47.8028 0.992457C47.2291 0.754956 46.6142 0.632856 45.9932 0.633128ZM20.7571 21.3902C20.8075 21.8608 20.7211 22.336 20.5083 22.7588C20.4062 22.9683 20.251 23.1475 20.0582 23.2784C19.8654 23.4094 19.6417 23.4876 19.4092 23.5053C18.8701 23.5468 18.3102 23.2979 17.7711 22.738C15.8426 20.7681 14.315 17.8235 13.1883 13.9044C11.8405 16.5586 10.8451 18.5493 10.2023 19.8764C8.97887 22.2196 7.94206 23.4223 7.07113 23.4846C6.51125 23.526 6.03432 23.0491 5.61959 22.0537C4.56204 19.3373 3.42154 14.091 2.1981 6.31488C2.15866 6.07287 2.16768 5.82543 2.22463 5.58693C2.28159 5.34843 2.38534 5.12362 2.52988 4.92554C2.68441 4.72611 2.8824 4.56455 3.10878 4.45315C3.33516 4.34176 3.58396 4.28347 3.83627 4.28272C4.89382 4.19977 5.49517 4.69745 5.64032 5.77573C6.28315 10.1096 6.98128 13.78 7.73469 16.7867L12.2759 8.13967C12.6907 7.35169 13.2091 6.93697 13.8312 6.89549C14.7436 6.83329 15.3035 7.4139 15.5316 8.63735C15.9616 11.0585 16.6212 13.4331 17.5015 15.7292C18.0406 10.4621 18.953 6.66048 20.2387 4.32419C20.3622 4.06196 20.5549 3.83841 20.7961 3.67762C21.0373 3.51684 21.3177 3.42493 21.6073 3.41179C22.0804 3.37256 22.5498 3.5216 22.9137 3.82652C23.0991 3.96614 23.2524 4.14389 23.3633 4.34778C23.4742 4.55168 23.5401 4.77697 23.5565 5.00849C23.5845 5.3533 23.5125 5.69888 23.3491 6.00384C22.5404 7.49685 21.8769 10.0059 21.3377 13.4897C20.8193 16.8697 20.6327 19.5032 20.7571 21.3902ZM33.4892 18.1346C32.245 20.2082 30.6276 21.245 28.6162 21.245C28.2396 21.2424 27.8644 21.2007 27.4964 21.1206C26.7994 20.9914 26.1399 20.7085 25.566 20.2924C24.9921 19.8763 24.5181 19.3375 24.1786 18.7152C23.515 17.5747 23.1833 16.2061 23.1833 14.6094C23.163 12.547 23.7235 10.5206 24.8007 8.76177C26.0656 6.68813 27.683 5.65132 29.6737 5.65132C30.0503 5.65394 30.4255 5.69564 30.7935 5.77573C31.4893 5.90821 32.1474 6.19245 32.7208 6.60821C33.2943 7.02396 33.769 7.56102 34.1113 8.18115C34.7749 9.30091 35.1066 10.6488 35.1066 12.2662C35.1242 14.3347 34.564 16.3671 33.4892 18.1346ZM46.4909 18.1346C45.2467 20.2082 43.6293 21.245 41.6178 21.245C41.2413 21.2424 40.866 21.2007 40.4981 21.1206C39.8011 20.9914 39.1416 20.7085 38.5677 20.2924C37.9937 19.8763 37.5198 19.3375 37.1803 18.7152C36.5167 17.5747 36.1849 16.2061 36.1849 14.6094C36.1647 12.547 36.7252 10.5206 37.8024 8.76177C39.0673 6.68813 40.6847 5.65132 42.6754 5.65132C43.0519 5.65394 43.4272 5.69564 43.7952 5.77573C44.4922 5.9049 45.1517 6.18783 45.7256 6.60393C46.2995 7.02003 46.7735 7.55884 47.113 8.18115C47.7765 9.30091 48.1083 10.6488 48.1083 12.2662C48.1259 14.3347 47.5657 16.3671 46.4909 18.1346Z" fill="#686F8B"/>
<path d="M55.9673 7.99454C54.578 9.36313 53.8937 11.105 53.8937 13.2201C53.8937 15.4803 54.578 17.3259 55.9466 18.7152C57.3152 20.1045 59.0985 20.8096 61.3173 20.8096C62.0481 20.8004 62.7741 20.6887 63.4739 20.4778V17.1185C62.8621 17.3083 62.2271 17.413 61.5869 17.4296C61.0944 17.4485 60.6038 17.36 60.149 17.1702C59.6942 16.9804 59.2862 16.6939 58.9533 16.3305C58.2898 15.584 57.958 14.5887 57.958 13.3238C57.958 12.1418 58.2898 11.1672 58.9326 10.4207C59.2308 10.0562 59.6078 9.76415 60.0352 9.56659C60.4627 9.36902 60.9294 9.2711 61.4002 9.28018C62.1023 9.28939 62.7999 9.39403 63.4739 9.59123V6.23195C62.7356 6.04305 61.9756 5.95241 61.2136 5.96237C59.0985 5.94164 57.3566 6.62594 55.9673 7.99454ZM70.3583 5.94164C68.4506 5.94164 66.9576 6.58446 65.8793 7.84938C64.801 9.1143 64.2826 10.8976 64.2826 13.1786C64.2826 15.6462 64.8217 17.5332 65.8793 18.8396C66.9368 20.146 68.4921 20.8096 70.5242 20.8096C72.4942 20.8096 74.0079 20.146 75.0655 18.8396C76.123 17.5332 76.6622 15.6877 76.6622 13.3238C76.6622 10.9598 76.123 9.13503 75.0447 7.84938C73.9664 6.56373 72.3905 5.94164 70.3583 5.94164ZM71.9965 16.7245C71.825 17.0017 71.5829 17.2284 71.2951 17.3814C71.0073 17.5344 70.684 17.6083 70.3583 17.5955C70.05 17.6054 69.745 17.5292 69.4776 17.3753C69.2102 17.2215 68.9909 16.9961 68.8446 16.7245C68.4921 16.1439 68.3262 14.9827 68.3262 13.2201C68.3262 10.5036 69.0105 9.15577 70.3998 9.15577C71.8513 9.15577 72.5978 10.5244 72.5978 13.2823C72.5771 14.9827 72.3697 16.1439 71.9965 16.7245ZM86.9059 6.33563L86.1594 9.50829C85.9728 10.317 85.7862 11.1465 85.6203 11.9966L85.2055 14.1947C84.8115 11.9966 84.2724 9.38387 83.5881 6.33563H78.7773L76.9732 20.4571H80.5813L81.5559 10.7317L84.0236 20.4571H86.5949L88.9588 10.7525L89.9749 20.4571H93.7489L91.8412 6.33563H86.9059ZM104.179 6.33563L103.433 9.50829C103.246 10.317 103.06 11.1465 102.894 11.9966L102.479 14.1947C102.085 11.9966 101.546 9.38387 100.861 6.33563H96.0506L94.2466 20.4571H97.8547L98.8293 10.7317L101.297 20.4571H103.868L106.211 10.7525L107.228 20.4571H111.002L109.094 6.33563H104.179ZM115.916 14.879H119.296V11.9552H115.916V9.36313H119.814V6.35636H112.101V20.4778H119.835V17.471H115.916V14.879ZM130.577 12.6395C130.96 12.0453 131.168 11.3556 131.178 10.6488C131.199 10.0359 131.068 9.42739 130.796 8.87745C130.525 8.32751 130.122 7.85323 129.623 7.49686C128.586 6.72962 127.155 6.33563 125.372 6.33563H120.934V20.4571H124.75V14.0288H124.812L127.902 20.4571H131.924L128.876 14.091C129.577 13.7902 130.17 13.2841 130.577 12.6395ZM124.729 12.4114V9.05208C125.641 9.07282 126.284 9.21798 126.678 9.50829C127.072 9.79859 127.259 10.2548 127.259 10.9184C127.259 11.893 126.409 12.3906 124.729 12.4114ZM133.418 7.99454C132.028 9.36313 131.344 11.105 131.344 13.2201C131.344 15.4803 132.028 17.3259 133.397 18.7152C134.765 20.1045 136.549 20.8096 138.767 20.8096C139.498 20.8004 140.224 20.6887 140.924 20.4778V17.1185C140.312 17.3083 139.677 17.413 139.037 17.4296C138.545 17.4485 138.054 17.36 137.599 17.1702C137.144 16.9804 136.736 16.6939 136.404 16.3305C135.74 15.584 135.408 14.5887 135.408 13.3238C135.408 12.1418 135.74 11.1672 136.383 10.4207C136.681 10.0562 137.058 9.76415 137.485 9.56659C137.913 9.36902 138.38 9.2711 138.85 9.28018C139.553 9.28939 140.25 9.39403 140.924 9.59123V6.23195C140.186 6.04305 139.426 5.95241 138.664 5.96237C136.569 5.94164 134.807 6.62594 133.418 7.99454ZM145.797 17.4296V14.8583H149.177V11.9344H145.797V9.3424H149.716V6.33563H142.002V20.4571H149.737V17.4503H145.797V17.4296Z" fill="#686F8B"/>
</svg>
